<?xml version="1.0" standalone="no"?>
<!DOCTYPE svg PUBLIC "-//W3C//DTD SVG 20010904//EN"
 "http://www.w3.org/TR/2001/REC-SVG-20010904/DTD/svg10.dtd">
<svg version="1.0" xmlns="http://www.w3.org/2000/svg"
 width="1280.000000pt" height="1280.000000pt" viewBox="0 0 1280.000000 1280.000000"
 preserveAspectRatio="xMidYMid meet">
<metadata>
Created by potrace 1.14, written by Peter Selinger 2001-2017
</metadata>
<g transform="translate(0.000000,1280.000000) scale(0.100000,-0.100000)"
fill="#000000" stroke="none">
<path d="M74 10518 c104 -202 235 -457 292 -568 26 -52 53 -98 59 -102 5 -4 7
-8 2 -8 -4 0 4 -18 18 -40 14 -22 23 -40 19 -40 -3 0 4 -12 15 -26 12 -15 21
-35 21 -45 0 -9 3 -19 8 -21 4 -1 20 -30 37 -63 16 -33 32 -62 35 -65 3 -3 35
-66 73 -140 37 -74 101 -200 143 -280 41 -80 110 -212 152 -295 42 -82 86
-167 99 -187 13 -21 20 -38 17 -38 -4 0 -2 -6 3 -12 6 -7 45 -80 88 -163 42
-82 81 -154 86 -159 5 -6 9 -18 9 -27 0 -10 4 -19 8 -21 4 -1 35 -57 69 -123
33 -66 92 -181 130 -255 39 -74 94 -182 124 -240 30 -58 57 -106 61 -108 5 -2
8 -10 8 -18 0 -7 10 -30 21 -51 12 -21 60 -112 107 -203 46 -91 93 -180 104
-197 11 -18 16 -33 11 -33 -4 0 -3 -4 2 -8 6 -4 39 -63 74 -132 35 -69 72
-140 83 -157 11 -18 16 -33 12 -33 -4 0 0 -8 8 -17 8 -10 40 -67 71 -128 110
-219 132 -260 142 -267 6 -4 7 -8 3 -8 -4 0 7 -26 25 -58 18 -32 57 -107 87
-167 30 -61 57 -112 60 -115 3 -3 32 -59 65 -125 33 -66 65 -127 71 -135 6 -8
17 -31 24 -50 8 -19 16 -37 19 -40 3 -3 29 -50 57 -105 70 -136 221 -430 309
-600 150 -289 269 -521 457 -885 39 -74 74 -141 80 -147 6 -7 7 -13 3 -13 -4
0 -3 -6 3 -13 10 -12 38 -65 230 -437 152 -295 172 -334 183 -344 5 -6 9 -18
9 -27 0 -44 21 -21 64 66 25 53 46 100 46 105 0 6 5 10 10 10 6 0 10 6 10 13
0 18 24 67 33 67 4 0 7 7 7 16 0 17 40 95 55 106 6 4 7 8 3 8 -4 0 16 46 44
103 29 56 53 104 53 107 6 21 90 186 97 188 4 2 8 9 8 15 0 6 22 56 49 112
221 450 360 735 372 762 7 18 18 33 22 33 5 0 6 4 2 9 -3 5 1 15 8 23 7 7 14
17 15 21 0 4 24 56 53 115 29 59 53 109 54 112 4 16 71 146 78 151 5 3 8 8 6
10 -1 2 24 57 55 121 31 65 56 122 56 128 0 5 5 10 10 10 6 0 10 4 10 9 0 8
133 282 393 811 45 91 80 168 79 173 -1 4 2 7 8 7 5 0 10 5 10 10 0 15 63 144
72 148 5 2 8 8 8 14 0 5 41 93 90 194 50 102 90 189 90 194 0 4 4 10 9 12 5 2
11 12 13 23 1 11 6 22 9 25 4 3 18 29 33 59 l25 54 -61 126 c-34 69 -62 128
-63 131 -1 7 -59 126 -131 273 -35 71 -64 135 -64 143 0 8 -3 14 -8 14 -4 0
-13 15 -21 33 -8 17 -48 102 -89 187 -163 339 -202 422 -202 431 0 5 -5 9 -12
9 -6 0 -8 3 -5 6 4 4 -4 21 -16 38 -12 17 -20 31 -17 31 2 0 -12 34 -32 75
-120 247 -161 336 -160 343 1 4 -3 7 -8 7 -6 0 -10 4 -10 10 0 9 -41 96 -215
455 -71 148 -122 253 -260 540 -29 61 -83 172 -119 247 -36 75 -66 141 -66
147 0 6 -4 11 -10 11 -5 0 -10 9 -10 20 0 11 -4 20 -10 20 -5 0 -9 3 -8 8 1 4
-23 58 -52 120 l-55 112 -2163 0 -2162 0 74 -142z"/>
<path d="M8547 10630 c-6 -16 -15 -30 -19 -30 -4 0 -8 -5 -8 -11 0 -14 -76
-167 -93 -187 -7 -9 -11 -17 -9 -19 2 -2 -135 -280 -303 -618 -168 -338 -305
-616 -304 -617 1 -2 -12 -25 -28 -53 -16 -27 -37 -70 -48 -95 -11 -25 -22 -47
-25 -50 -5 -4 -18 -31 -25 -50 -5 -15 -53 -111 -61 -122 -6 -7 -23 -42 -39
-78 -17 -36 -34 -68 -38 -71 -5 -3 -8 -9 -8 -13 1 -10 -163 -341 -171 -344 -5
-2 -8 -8 -8 -13 0 -15 -213 -443 -222 -447 -4 -2 -8 -9 -8 -16 0 -18 -121
-260 -132 -264 -4 -2 -8 -10 -8 -17 0 -8 -56 -126 -124 -262 -68 -136 -189
-379 -269 -540 -80 -160 -150 -300 -156 -310 -18 -32 -695 -1398 -696 -1403
-1 -3 -12 -25 -25 -50 -29 -53 -50 -99 -47 -103 1 -1 -8 -17 -21 -35 -13 -17
-20 -32 -15 -32 4 0 4 -4 -2 -8 -5 -4 -23 -36 -40 -72 -16 -36 -33 -67 -37
-70 -3 -3 -10 -18 -13 -33 -4 -15 -11 -27 -16 -27 -5 0 -9 -9 -9 -20 0 -11 -4
-20 -10 -20 -5 0 -9 -3 -8 -7 1 -5 -68 -149 -154 -321 -86 -171 -154 -312
-150 -312 4 0 2 -4 -4 -8 -10 -6 -449 -884 -454 -907 -1 -5 -11 -22 -21 -37
-10 -14 -19 -33 -19 -41 0 -9 -3 -17 -7 -19 -6 -2 -251 -485 -258 -508 -12
-38 -29 -70 -36 -70 -5 0 -9 -5 -9 -12 0 -6 -16 -42 -35 -80 l-36 -68 2119 0
c1634 0 2121 3 2130 12 7 7 12 20 12 29 0 10 3 19 8 21 4 2 41 73 82 158 41
85 78 157 83 158 4 2 7 9 7 15 0 16 63 141 73 145 4 2 7 12 7 23 0 10 5 19 10
19 6 0 10 6 10 13 0 6 34 77 75 157 41 80 78 152 81 160 3 8 53 110 110 225
58 116 104 214 103 219 0 5 3 12 8 15 6 3 22 33 38 66 15 33 33 63 39 67 6 4
8 8 4 8 -4 0 48 109 115 243 67 133 122 244 122 247 1 3 34 70 75 150 41 80
74 147 75 150 0 3 7 16 15 30 8 14 15 27 15 30 3 14 71 146 78 151 5 3 8 9 8
12 0 7 56 126 79 167 8 14 15 27 15 30 2 13 71 145 77 148 5 2 8 8 8 14 0 16
352 722 362 726 4 2 8 9 8 17 0 7 34 80 76 163 41 84 74 154 74 158 -1 4 2 10
7 13 4 3 36 62 69 131 224 454 510 1026 517 1031 5 3 7 8 6 10 -2 2 91 193
206 424 115 231 210 422 210 425 0 3 7 16 15 30 7 14 51 102 97 195 46 94 88
177 93 185 6 8 14 25 20 37 10 23 18 39 86 173 21 41 38 77 39 80 0 3 121 247
269 542 147 296 267 540 266 544 -1 4 2 10 7 13 11 8 233 455 233 470 0 6 5
11 10 11 6 0 10 9 10 19 0 11 3 21 8 23 9 4 92 171 92 186 0 7 5 12 10 12 6 0
10 5 10 10 0 7 -714 10 -2121 10 l-2121 0 -11 -30z"/>
</g>
</svg>
